<svg width="95" height="107" viewBox="0 0 95 107" fill="none" xmlns="http://www.w3.org/2000/svg">
<path d="M84.7877 30.9072V45.7896C82.1875 45.5356 78.8089 44.9447 75.0714 43.5752C70.1912 41.786 66.5587 39.3397 64.1793 37.4455V67.5252L64.1186 67.4313C64.1572 68.0277 64.1793 68.6351 64.1793 69.2481C64.1793 84.1858 52.0284 96.3457 37.0896 96.3457C22.1509 96.3457 10 84.1858 10 69.2481C10 54.3105 22.1509 42.145 37.0896 42.145C38.5526 42.145 39.988 42.2609 41.3902 42.4873V57.1544C40.0432 56.674 38.5968 56.4144 37.0896 56.4144C30.0177 56.4144 24.2597 62.1686 24.2597 69.2481C24.2597 76.3276 30.0177 82.0818 37.0896 82.0818C44.1615 82.0818 49.9195 76.3221 49.9195 69.2481C49.9195 68.983 49.914 68.718 49.8975 68.4529V10H64.7645C64.8197 11.2591 64.8694 12.5292 64.9246 13.7883C65.024 16.2678 65.9072 18.6478 67.4475 20.5972C69.2527 22.8889 71.9192 25.5506 75.6621 27.6767C79.1677 29.6592 82.458 30.5151 84.7877 30.9182V30.9072Z" fill="white"/>
</svg>
